<svg id="Layer_1" data-name="Layer 1" xmlns="http://www.w3.org/2000/svg" viewBox="0 0 176.89 38.4"><defs><style>.cls-1{isolation:isolate;}.cls-2{fill:#bcbec0;}.cls-3{fill:none;stroke:#f37f81;stroke-miterlimit:10;}</style></defs><g class="cls-1"><path class="cls-2" d="M16.93,32.14a.64.64,0,0,1,.53-.26.7.7,0,0,1,.49.2.66.66,0,0,1,.2.48A.57.57,0,0,1,18,33h0l-3.46,4.66a2,2,0,0,1-.65.54,1.78,1.78,0,0,1-.85.21,1.73,1.73,0,0,1-.81-.19,1.77,1.77,0,0,1-.64-.51L8.11,33.05A.74.74,0,0,1,8,32.83a.6.6,0,0,1-.06-.27.62.62,0,0,1,.2-.48.69.69,0,0,1,1,.07l3.33,4.45.25.25a.42.42,0,0,0,.61,0,2.65,2.65,0,0,0,.24-.25Z"/><path class="cls-2" d="M19.57,32.56a.66.66,0,0,1,.2-.48.7.7,0,0,1,.49-.2H30.4a.66.66,0,0,1,.48.2.62.62,0,0,1,.2.48.63.63,0,0,1-.2.49.66.66,0,0,1-.48.2H20.26a.7.7,0,0,1-.49-.2A.66.66,0,0,1,19.57,32.56Zm1.75,5.55a1.58,1.58,0,0,1-.63-.13,1.79,1.79,0,0,1-.56-.38,2.11,2.11,0,0,1-.4-.59,1.89,1.89,0,0,1-.16-.77V35a.54.54,0,0,1,.23-.51,1.36,1.36,0,0,1,.69-.13h9.59a.68.68,0,0,1,.69.69.66.66,0,0,1-.2.48.64.64,0,0,1-.49.2H21v.7a.32.32,0,0,0,.12.25.48.48,0,0,0,.32.11h9a.66.66,0,0,1,.48.2.64.64,0,0,1,.2.49.68.68,0,0,1-.68.68Z"/><path class="cls-2" d="M32.51,35a3.52,3.52,0,0,1,.18-1.1,3.66,3.66,0,0,1,.52-1,3.09,3.09,0,0,1,.83-.74,2.14,2.14,0,0,1,1.1-.28h8.34a.7.7,0,0,1,.49.2.69.69,0,0,1,0,1,.7.7,0,0,1-.49.2h-8a1.57,1.57,0,0,0-.81.18,1.4,1.4,0,0,0-.49.44,1.47,1.47,0,0,0-.24.56,3.05,3.05,0,0,0-.07.57,3,3,0,0,0,.07.56,1.51,1.51,0,0,0,.24.57,1.48,1.48,0,0,0,.49.43,1.57,1.57,0,0,0,.81.18h8a.7.7,0,0,1,.49.2.68.68,0,0,1,.2.49.68.68,0,0,1-.69.68H35a1.91,1.91,0,0,1-1-.28,2.62,2.62,0,0,1-.78-.74,3.27,3.27,0,0,1-.49-1A3.49,3.49,0,0,1,32.51,35Z"/><path class="cls-2" d="M56.61,32.08a.69.69,0,0,1,0,1,.7.7,0,0,1-.49.2H51.89v4.18a.69.69,0,0,1-1.38,0V33.25H46.22a.72.72,0,0,1-.44-.22.66.66,0,0,1-.18-.47.62.62,0,0,1,.2-.48.66.66,0,0,1,.48-.2h9.84A.7.7,0,0,1,56.61,32.08Z"/><path class="cls-2" d="M69.52,35a3.55,3.55,0,0,1-.7,2.09,2.93,2.93,0,0,1-.83.74,2.17,2.17,0,0,1-1.1.28H60.37a2.06,2.06,0,0,1-1-.32,2.88,2.88,0,0,1-.78-.74,3.57,3.57,0,0,1-.66-2,3.52,3.52,0,0,1,.18-1.1,3.4,3.4,0,0,1,.52-1,3,3,0,0,1,.83-.74,2.12,2.12,0,0,1,1.1-.28H67a2.12,2.12,0,0,1,1,.32,2.75,2.75,0,0,1,.78.74,3.11,3.11,0,0,1,.49,1A3.44,3.44,0,0,1,69.52,35Zm-2.13,1.56a1.48,1.48,0,0,0,.49-.43,1.51,1.51,0,0,0,.24-.57,3,3,0,0,0,.07-.56,3.05,3.05,0,0,0-.07-.57,1.47,1.47,0,0,0-.24-.56,1.4,1.4,0,0,0-.49-.44,1.62,1.62,0,0,0-.81-.18H60.81a1.59,1.59,0,0,0-.81.18,1.49,1.49,0,0,0-.49.44,1.64,1.64,0,0,0-.24.56,3,3,0,0,0-.06.57,2.89,2.89,0,0,0,.06.56,1.69,1.69,0,0,0,.24.57,1.49,1.49,0,0,0,1.3.61h5.77A1.62,1.62,0,0,0,67.39,36.56Z"/><path class="cls-2" d="M80.92,36.2c.27.19.54.39.82.61a1.72,1.72,0,0,1,.27.27.53.53,0,0,1,.12.35.68.68,0,0,1-.69.68.76.76,0,0,1-.49-.2c-.39-.28-.79-.56-1.2-.83a11.32,11.32,0,0,0-1.28-.71,7.33,7.33,0,0,0-1.38-.5,5.56,5.56,0,0,0-1.48-.19H72.76a.53.53,0,0,0-.31.17.52.52,0,0,0-.13.36v1.22a.63.63,0,0,1-.21.48.65.65,0,0,1-.48.2.68.68,0,0,1-.68-.68V36.05a1.79,1.79,0,0,1,.13-.68,1.62,1.62,0,0,1,.37-.55,1.71,1.71,0,0,1,1.23-.51h7.57a.54.54,0,0,0,.38-.15.5.5,0,0,0,.17-.38.5.5,0,0,0-.17-.37.51.51,0,0,0-.38-.16H71.63a.66.66,0,0,1-.48-.2.63.63,0,0,1-.2-.49.62.62,0,0,1,.2-.48.66.66,0,0,1,.48-.2H80.2a1.91,1.91,0,0,1,1.36.56,1.85,1.85,0,0,1,0,2.68,1.91,1.91,0,0,1-1.36.56h-.06C80.4,35.84,80.66,36,80.92,36.2Z"/><path class="cls-2" d="M98.71,36.74a1.61,1.61,0,0,0,.8-.18,1.52,1.52,0,0,0,.5-.43,1.69,1.69,0,0,0,.24-.57,2.89,2.89,0,0,0,.06-.56,3,3,0,0,0-.06-.57,1.64,1.64,0,0,0-.24-.56,1.43,1.43,0,0,0-.5-.44,1.61,1.61,0,0,0-.8-.18h-8a.68.68,0,0,1-.49-.2.69.69,0,0,1,0-1,.68.68,0,0,1,.49-.2H99a2.12,2.12,0,0,1,1.1.28,3,3,0,0,1,.83.74,3.4,3.4,0,0,1,.52,1,3.52,3.52,0,0,1,.18,1.1,3.67,3.67,0,0,1-.17,1.07,3.34,3.34,0,0,1-.49,1,2.88,2.88,0,0,1-.78.74,2.06,2.06,0,0,1-1,.32H90.68a.64.64,0,0,1-.49-.2.66.66,0,0,1-.2-.48V35a.68.68,0,0,1,.69-.69.66.66,0,0,1,.48.2.64.64,0,0,1,.2.49v1.74Z"/><path class="cls-2" d="M103.07,32.56a.66.66,0,0,1,.2-.48.7.7,0,0,1,.49-.2h10.13a.69.69,0,1,1,0,1.37H103.76a.7.7,0,0,1-.49-.2A.66.66,0,0,1,103.07,32.56Zm1.75,5.55a1.58,1.58,0,0,1-.63-.13,1.79,1.79,0,0,1-.56-.38,1.92,1.92,0,0,1-.4-.59,1.74,1.74,0,0,1-.16-.77V35a.55.55,0,0,1,.22-.51,1.4,1.4,0,0,1,.7-.13h9.59a.7.7,0,0,1,.49.2.68.68,0,0,1,.2.49.68.68,0,0,1-.69.68h-9.14v.7a.33.33,0,0,0,.13.25.46.46,0,0,0,.32.11h9a.66.66,0,0,1,.49.2.68.68,0,0,1,.2.49.66.66,0,0,1-.2.48.63.63,0,0,1-.49.2Z"/><path class="cls-2" d="M117.17,35.53a1.78,1.78,0,0,1-.6-.41,1.94,1.94,0,0,1-.41-.6,1.9,1.9,0,0,1,0-1.48,1.94,1.94,0,0,1,.41-.6,1.78,1.78,0,0,1,.6-.41,1.85,1.85,0,0,1,.74-.15h8.68a.7.7,0,0,1,.49.2.69.69,0,0,1,0,1,.7.7,0,0,1-.49.2h-8.71a.55.55,0,0,0-.38.15.53.53,0,0,0-.16.38.55.55,0,0,0,.54.53h7.91a1.86,1.86,0,0,1,.75.15,2,2,0,0,1,.61.41,1.87,1.87,0,0,1,.56,1.36,1.85,1.85,0,0,1-.15.74,1.87,1.87,0,0,1-1,1,2,2,0,0,1-.75.14h-8.66a.64.64,0,0,1-.49-.2.66.66,0,0,1-.2-.48.68.68,0,0,1,.69-.69h8.72a.53.53,0,0,0,.37-.15.5.5,0,0,0,.16-.36.53.53,0,0,0-.16-.39.5.5,0,0,0-.37-.16h-7.94A1.85,1.85,0,0,1,117.17,35.53Z"/><path class="cls-2" d="M130.31,37.91a.66.66,0,0,1-.49.2.68.68,0,0,1-.68-.68V32.56a.62.62,0,0,1,.2-.48.66.66,0,0,1,.48-.2.7.7,0,0,1,.49.2.66.66,0,0,1,.2.48v4.87A.66.66,0,0,1,130.31,37.91Z"/><path class="cls-2" d="M135.71,35a.68.68,0,0,1,.2-.49.7.7,0,0,1,.49-.2h5.47a1.56,1.56,0,0,1,.68.14,1.72,1.72,0,0,1,.55.37,1.59,1.59,0,0,1,.36.55,1.79,1.79,0,0,1,.13.68v.32a1.75,1.75,0,0,1-.13.68,1.59,1.59,0,0,1-.36.55,1.75,1.75,0,0,1-.55.38,1.72,1.72,0,0,1-.68.13h-7.44a1.94,1.94,0,0,1-1.05-.28,2.88,2.88,0,0,1-.78-.74,3.51,3.51,0,0,1-.49-1,3.79,3.79,0,0,1-.17-1.08,3.52,3.52,0,0,1,.18-1.1,3.4,3.4,0,0,1,.52-1,3,3,0,0,1,.83-.74,2.12,2.12,0,0,1,1.1-.28h8.33a.69.69,0,1,1,0,1.37h-8a1.55,1.55,0,0,0-.8.18,1.4,1.4,0,0,0-.49.44,1.47,1.47,0,0,0-.24.56,2.39,2.39,0,0,0-.07.57,2.32,2.32,0,0,0,.07.56,1.51,1.51,0,0,0,.24.57,1.48,1.48,0,0,0,.49.43,1.55,1.55,0,0,0,.8.18h6.94a.41.41,0,0,0,.31-.16.54.54,0,0,0,.13-.37.59.59,0,0,0-.12-.37.38.38,0,0,0-.32-.16H136.4a.68.68,0,0,1-.69-.68Z"/><path class="cls-2" d="M155,32.08a.66.66,0,0,1,.48-.2.68.68,0,0,1,.49.2.66.66,0,0,1,.2.48v4.17a1.33,1.33,0,0,1-.39,1,1.32,1.32,0,0,1-1,.4,1.75,1.75,0,0,1-.4,0,2.21,2.21,0,0,1-.35-.16l-6.54-4-.46-.25a.64.64,0,0,0-.29-.09q-.21,0-.27.27a4,4,0,0,0-.06.79v2.82a.68.68,0,0,1-.68.68.64.64,0,0,1-.49-.2.66.66,0,0,1-.2-.48V33.27a1.37,1.37,0,0,1,.39-1,1.32,1.32,0,0,1,1-.4,1.34,1.34,0,0,1,.4.06,1.54,1.54,0,0,1,.35.15l6.54,4,.45.25a.71.71,0,0,0,.3.09q.21,0,.27-.27a4,4,0,0,0,.06-.79V32.56A.62.62,0,0,1,155,32.08Z"/><path class="cls-2" d="M158.72,35.53a1.78,1.78,0,0,1-.6-.41,1.94,1.94,0,0,1-.41-.6,1.9,1.9,0,0,1,0-1.48,1.94,1.94,0,0,1,.41-.6,1.78,1.78,0,0,1,.6-.41,1.81,1.81,0,0,1,.74-.15h8.68a.7.7,0,0,1,.49.2.69.69,0,0,1,0,1,.7.7,0,0,1-.49.2h-8.71a.55.55,0,0,0-.38.15.49.49,0,0,0-.16.38.49.49,0,0,0,.16.37.52.52,0,0,0,.38.16h7.91a1.86,1.86,0,0,1,.75.15,2,2,0,0,1,.61.41,1.91,1.91,0,0,1,.4.6,1.94,1.94,0,0,1,.15.76,1.85,1.85,0,0,1-.15.74,1.91,1.91,0,0,1-.4.6,2,2,0,0,1-.61.4,2,2,0,0,1-.75.14h-8.67a.68.68,0,0,1-.68-.68.64.64,0,0,1,.2-.49.66.66,0,0,1,.48-.2h8.73a.53.53,0,0,0,.37-.15.5.5,0,0,0,.16-.36.53.53,0,0,0-.16-.39.5.5,0,0,0-.37-.16h-7.94A1.81,1.81,0,0,1,158.72,35.53Z"/></g><g class="cls-1"><path class="cls-2" d="M8.22,25.22H.33V0H17.2V3.13L16,6.34H8.22v4.07H16v6.31H8.22Z"/><path class="cls-2" d="M19,25.22V0h7.85V25.22Z"/><path class="cls-2" d="M45.51,0a3,3,0,0,1,3.14,3.13V13a3.11,3.11,0,0,1-2.09,2.85L49,22.08v3.14H41.33l-2.12-7.86H37.62v7.86H29.73V0ZM37.62,6.34v4.72h3.14V6.34Z"/><path class="cls-2" d="M51.2,25.22V0H68.06V3.13L66.8,6.34H59.06V9.15H66.8v6.31H59.06v3.45h9v6.31Z"/><path class="cls-2" d="M69.51,8.43V3.13A3,3,0,0,1,72.68,0H86.37V3.1L85.14,6.34H77.4V7.49l6.84,4.58c1.73,1.15,2.13,2.27,2.13,4.29v5.72a3,3,0,0,1-3.14,3.14H69.51V18.91h9V17.26l-6.85-4.54C69.9,11.53,69.51,10.45,69.51,8.43Z"/><path class="cls-2" d="M87.45,6.34V0H105.1V3.13l-1.26,3.21h-3.78V25.22H92.17V6.34Z"/><path class="cls-2" d="M110.07,25.22a3,3,0,0,1-3.17-3.14V3.13A3,3,0,0,1,110.07,0h12.58a3,3,0,0,1,3.17,3.13v19a3,3,0,0,1-3.17,3.14Zm4.72-18.88V18.91h3.14V6.34Z"/><path class="cls-2" d="M144.48,0a3,3,0,0,1,3.13,3.13V13a3.11,3.11,0,0,1-2.09,2.85L148,22.08v3.14H140.3l-2.13-7.86h-1.58v7.86H128.7V0Zm-7.89,6.34v4.72h3.13V6.34Z"/><path class="cls-2" d="M157.77,13.11h-.61V25.22h-7.71V22.08L152,0h8.79l1.91,9.94h.54L165.19,0H174l2.56,22.08v3.14h-7.67V13.11h-.65l-1.95,12.11h-6.59Z"/></g><path id="path4781" class="cls-3" d="M0,28.86H176.89"/></svg>